# Blender 3.5.1
# www.blender.org
mtllib box1.mtl
o skrzynia1.001
v 0.500000 0.736650 0.440000
v 0.500000 0.356650 0.440000
v -0.500000 0.736650 0.440000
v -0.500000 0.356650 0.440000
v 0.500000 0.736650 -0.440000
v 0.500000 0.356650 -0.440000
v -0.500000 0.736650 -0.440000
v -0.500000 0.356650 -0.440000
v 0.440000 0.356650 0.500000
v 0.440000 0.356650 -0.500000
v 0.440000 0.736650 0.500000
v -0.440000 0.356650 -0.500000
v -0.440000 0.736650 -0.500000
v -0.440000 0.736650 0.500000
v -0.440000 0.356650 0.500000
v 0.440000 0.736650 -0.500000
v 0.440000 0.356650 -0.500000
v -0.440000 0.356650 -0.500000
v 0.440000 0.736650 0.500000
v 0.440000 0.356650 0.500000
v -0.440000 0.736650 -0.500000
v -0.440000 0.736650 0.500000
v -0.440000 0.356650 0.500000
v 0.440000 0.736650 -0.500000
v 0.440000 0.736650 0.470000
v 0.440000 0.356650 0.470000
v -0.440000 0.736650 0.470000
v -0.440000 0.356650 0.470000
v 0.470000 0.356650 0.440000
v 0.470000 0.356650 -0.440000
v 0.470000 0.736650 0.440000
v 0.470000 0.736650 -0.440000
v 0.440000 0.356650 -0.470000
v -0.440000 0.356650 -0.470000
v -0.440000 0.736650 -0.470000
v 0.440000 0.736650 -0.470000
v -0.470000 0.356650 -0.440000
v -0.470000 0.736650 -0.440000
v -0.470000 0.736650 0.440000
v -0.470000 0.356650 0.440000
v 0.500000 0.332019 -0.500000
v 0.464631 0.296650 -0.464631
v -0.464631 0.296650 -0.464631
v -0.500000 0.332019 -0.500000
v 0.464631 0.796650 0.464631
v 0.500000 0.761281 0.500000
v 0.500000 0.332019 0.500000
v 0.464631 0.296650 0.464631
v -0.464631 0.796650 -0.464631
v -0.500000 0.761281 -0.500000
v -0.464631 0.796650 0.464631
v -0.500000 0.761281 0.500000
v -0.464631 0.296650 0.464631
v -0.500000 0.332019 0.500000
v 0.464631 0.796650 -0.464631
v 0.500000 0.761281 -0.500000
vn -0.0000 -1.0000 -0.0000
vn -0.0000 1.0000 -0.0000
vn -0.0000 -0.0000 -1.0000
vn 1.0000 -0.0000 -0.0000
vn -0.0000 -0.0000 1.0000
vn -1.0000 -0.0000 -0.0000
vn -0.0000 -0.7071 -0.7071
vn 0.7071 -0.7071 -0.0000
vn -0.0000 0.7071 -0.7071
vn -0.7071 -0.7071 -0.0000
vn -0.0000 -0.7071 0.7071
vn -0.7071 0.7071 -0.0000
vn 0.7071 0.7071 -0.0000
vn -0.0000 0.7071 0.7071
vt 0.938590 0.659652
vt 0.092259 0.895194
vt 0.553381 0.401293
vt 0.867466 0.666361
vt 0.092259 0.754941
vt 0.693633 0.401293
vt 0.945298 0.659652
vt 0.388239 0.350294
vt 0.014427 0.895194
vt 0.528491 0.350294
vt 0.014427 0.754941
vt 0.963079 0.334857
vt 0.885247 0.806613
vt 0.553381 0.726088
vt 0.938590 0.334857
vt 0.885247 0.666361
vt 0.693633 0.726088
vt 0.867466 0.991156
vt 0.945298 0.334857
vt 0.388239 0.025499
vt 0.110040 0.895194
vt 0.528491 0.025499
vt 0.963079 0.659652
vt 0.110040 0.754941
vt 0.127821 0.754941
vt 0.528491 0.726088
vt 0.134529 0.754941
vt 0.693633 0.025499
vt 0.127821 0.754941
vt 0.388239 0.726088
vt 0.134529 0.754941
vt 0.693633 0.350294
vt 0.553381 0.350294
vt 0.134529 0.754941
vt 0.127821 0.754941
vt 0.388239 0.401293
vt 0.127821 0.754941
vt 0.528491 0.401293
vt 0.553381 0.025499
vt 0.134529 0.754941
vt 0.134529 0.754941
vt 0.074478 0.754941
vt 0.920809 0.334857
vt 0.134529 0.754941
vt 0.032208 0.754941
vt 0.920809 0.659652
vt 0.049989 0.895194
vt 0.127821 0.754941
vt 0.885247 0.334857
vt 0.388239 0.726088
vt 0.049989 0.754941
vt 0.127821 0.754941
vt 0.891955 0.334857
vt 0.553381 0.350294
vt 0.856393 0.659652
vt 0.134529 0.754941
vt 0.032208 0.895194
vt 0.127821 0.754941
vt 0.885247 0.659652
vt 0.056697 0.895194
vt 0.388239 0.401293
vt 0.127821 0.754941
vt 0.891955 0.659652
vt 0.056697 0.754941
vt 0.553381 0.025499
vt 0.856394 0.334857
vt 0.134529 0.754941
vt 0.074478 0.895194
vt 0.038916 0.895194
vt 0.709433 0.659652
vt 0.874174 0.334857
vt 0.038916 0.754941
vt 0.849685 0.659652
vt 0.903028 0.334857
vt 0.709433 0.334857
vt 0.874174 0.659652
vt 0.067770 0.895194
vt 0.849685 0.334857
vt 0.903028 0.659652
vt 0.067770 0.754941
vt 0.849685 0.666361
vt 0.856393 0.666361
vt 0.103331 0.754941
vt 0.874174 0.666361
vt 0.849685 0.991156
vt 0.856393 0.991156
vt 0.709433 0.666361
vt 0.927517 0.659652
vt 0.103331 0.895194
vt 0.874174 0.806613
vt 0.709433 0.991156
vt 0.927517 0.334857
vt 0.996646 0.003354
vt 0.085551 0.754941
vt 0.909736 0.334857
vt 0.996646 0.328149
vt 0.021135 0.754941
vt 0.909736 0.659652
vt 0.867466 0.659652
vt 0.856394 0.328149
vt 0.021135 0.895194
vt 0.867466 0.334857
vt 0.856394 0.003354
vt 0.085550 0.895194
vt 0.849685 0.003354
vt 0.974152 0.659652
vt 0.121112 0.754941
vt 0.956371 0.334857
vt 0.709433 0.003354
vt 0.121112 0.895194
vt 0.956371 0.659652
vt 0.709433 0.328149
vt 0.003354 0.895194
vt 0.849685 0.328149
vt 0.003354 0.754941
vt 0.974152 0.334857
vt 0.702724 0.748233
vt 0.003354 0.003354
vt 0.702724 0.003354
vt 0.016408 0.016408
vt 0.016408 0.359385
vt 0.537582 0.003354
vt 0.003354 0.372439
vt 0.702724 0.372439
vt 0.016408 0.392202
vt 0.544290 0.379148
vt 0.379148 0.748233
vt 0.003354 0.379148
vt 0.537582 0.748233
vt 0.702724 0.379148
vt 0.372439 0.003354
vt 0.359385 0.016408
vt 0.359385 0.735179
vt 0.379148 0.003354
vt 0.544290 0.372439
vt 0.372439 0.748233
vt 0.016408 0.735179
vt 0.379148 0.372439
vt 0.379148 0.379148
vt 0.003354 0.748233
vt 0.359385 0.359385
vt 0.537582 0.372439
vt 0.537582 0.379148
vt 0.372439 0.372439
vt 0.359385 0.392202
vt 0.544290 0.748233
vt 0.544290 0.003354
vt 0.372439 0.379148
s 0
usemtl box2
f 3/7/1 7/19/1 38/108/1 39/111/1
f 11/29/2 14/35/3 22/58/2 19/48/3
f 5/14/4 6/17/4 41/117/4 56/146/4
f 15/37/2 9/25/3 20/52/2 23/62/3
f 6/16/5 5/13/5 32/90/5 30/84/5
f 10/28/3 16/39/3 56/147/3 41/119/3
f 5/14/4 56/146/4 46/126/4 1/3/4
f 11/30/5 9/26/5 47/129/5 46/127/5
f 6/17/4 2/6/4 47/130/4 41/117/4
f 3/8/6 52/138/6 50/134/6 7/20/6
f 8/22/6 7/20/6 50/134/6 44/122/6
f 42/120/1 48/132/1 53/141/1 43/121/1
f 49/133/2 51/137/2 45/125/2 55/145/2
f 4/10/6 8/22/6 44/122/6 54/142/6
f 3/8/6 4/10/6 54/142/6 52/138/6
f 13/33/3 12/32/3 44/124/3 50/135/3
f 15/38/5 14/36/5 52/139/5 54/143/5
f 50/135/3 56/147/3 16/39/3 24/65/3 21/54/3 13/33/3
f 21/55/1 24/66/1 36/102/1 35/99/1
f 20/51/6 19/47/6 25/69/6 26/72/6
f 14/35/2 15/37/3 23/62/2 22/58/3
f 9/25/2 11/29/3 19/48/2 20/52/3
f 13/34/2 16/40/3 24/67/2 21/56/3
f 16/40/2 10/27/3 17/41/2 24/67/3
f 12/31/2 13/34/3 21/56/2 18/44/3
f 10/27/2 12/31/3 18/44/2 17/41/3
f 26/73/5 25/70/5 27/75/5 28/78/5
f 23/63/2 20/53/2 26/74/2 28/79/2
f 19/49/1 22/59/1 27/76/1 25/71/1
f 22/60/4 23/64/4 28/80/4 27/77/4
f 30/85/4 32/91/4 31/87/4 29/81/4
f 2/4/2 6/18/2 30/86/2 29/82/2
f 5/15/1 1/1/1 31/88/1 32/92/1
f 1/2/3 2/5/3 29/83/3 31/89/3
f 34/96/3 35/100/3 36/103/3 33/93/3
f 24/68/6 17/42/6 33/94/6 36/104/6
f 18/45/4 21/57/4 35/101/4 34/97/4
f 17/43/2 18/46/2 34/98/2 33/95/2
f 40/114/6 39/112/6 38/109/6 37/105/6
f 4/11/3 3/9/3 39/113/3 40/115/3
f 8/23/2 4/12/2 40/116/2 37/106/2
f 7/21/5 8/24/5 37/107/5 38/110/5
f 9/26/5 15/38/5 54/143/5 47/129/5
f 2/6/4 1/3/4 46/126/4 47/130/4
f 46/127/5 52/139/5 14/36/5 22/61/5 19/50/5 11/30/5
f 42/120/7 43/121/7 44/123/7 41/118/7
f 48/132/8 42/120/8 41/118/8 47/131/8
f 49/133/9 55/145/9 56/148/9 50/136/9
f 43/121/10 53/141/10 54/144/10 44/123/10
f 53/141/11 48/132/11 47/131/11 54/144/11
f 50/136/12 52/140/12 51/137/12 49/133/12
f 46/128/13 56/148/13 55/145/13 45/125/13
f 45/125/14 51/137/14 52/140/14 46/128/14
f 12/32/3 10/28/3 41/119/3 44/124/3
