# Blender 3.5.0
# www.blender.org
mtllib platforma2.mtl
o Cube.001
v -1.000000 0.500000 -3.523629
v -1.000000 0.550000 -3.473629
v -1.000000 0.800000 -3.473629
v -1.000000 0.850000 -3.523629
v -1.000000 0.550000 -9.473629
v -1.000000 0.500000 -9.423629
v -1.000000 0.850000 -9.423629
v -1.000000 0.800000 -9.473629
v 0.950000 0.500000 -3.980212
v 1.000000 0.550000 -3.973629
v 0.493418 0.500000 -3.523629
v 0.500000 0.550000 -3.473629
v 0.888184 0.500000 -3.749511
v 0.933013 0.550000 -3.723629
v 0.724118 0.500000 -3.585445
v 0.750000 0.550000 -3.540617
v 0.493418 0.850000 -3.523629
v 0.500000 0.800000 -3.473629
v 0.950000 0.850000 -3.980212
v 1.000000 0.800000 -3.973629
v 0.724118 0.850000 -3.585445
v 0.750000 0.800000 -3.540617
v 0.888184 0.850000 -3.749511
v 0.933013 0.800000 -3.723629
v 0.493419 0.500000 -9.423629
v 0.500000 0.550000 -9.473629
v 0.950000 0.500000 -8.967046
v 1.000000 0.550000 -8.973629
v 0.724117 0.500000 -9.361814
v 0.750000 0.550000 -9.406642
v 0.888184 0.500000 -9.197747
v 0.933013 0.550000 -9.223629
v 0.950000 0.850000 -8.967046
v 1.000000 0.800000 -8.973629
v 0.493419 0.850000 -9.423629
v 0.500000 0.800000 -9.473629
v 0.888184 0.850000 -9.197747
v 0.933013 0.800000 -9.223629
v 0.724117 0.850000 -9.361814
v 0.750000 0.800000 -9.406642
v -1.000000 0.500000 -4.506963
v -1.000000 0.500000 -4.720269
v -0.039170 0.500000 -4.506963
v -1.000000 0.500000 -8.226990
v -1.000000 0.500000 -8.440295
v -0.039170 0.500000 -4.720269
v -0.039170 0.500000 -8.226990
v -0.039170 0.500000 -8.440295
v -0.852696 0.500000 -8.440295
v -0.852696 0.500000 -8.226990
v -0.852696 0.500000 -4.720269
v -0.852696 0.309199 -4.506963
v -1.000000 -0.090801 -4.506963
v -1.000000 -0.090801 -4.720269
v -1.000000 -0.090801 -8.226990
v -1.000000 -0.090801 -8.440295
v -0.852696 0.309199 -8.226990
v -0.852696 0.309199 -4.720269
v -0.852696 0.500000 -4.506963
v -0.852696 0.309199 -8.440295
vn -0.0000 -0.0000 1.0000
vn -0.0000 1.0000 -0.0000
vn -0.0000 -0.0000 -1.0000
vn 0.2588 -0.0000 0.9659
vn 0.9659 -0.0000 0.2588
vn 0.7071 -0.0000 -0.7071
vn 0.9659 -0.0000 -0.2588
vn 0.7071 -0.0000 0.7071
vn 0.2588 -0.0000 -0.9659
vn 1.0000 -0.0000 -0.0000
vn 0.6830 0.7071 -0.1830
vn 0.6830 -0.7071 -0.1830
vn 0.5000 0.7071 -0.5000
vn 0.5000 -0.7071 -0.5000
vn 0.1830 0.7071 -0.6830
vn 0.1830 -0.7071 -0.6830
vn 0.1830 0.7071 0.6830
vn 0.1830 -0.7071 0.6830
vn 0.5000 0.7071 0.5000
vn 0.5000 -0.7071 0.5000
vn 0.6830 0.7071 0.1830
vn 0.6830 -0.7071 0.1830
vn -0.0000 -0.7071 -0.7071
vn 0.7071 -0.7071 -0.0000
vn -0.0000 -0.7071 0.7071
vn 0.7071 0.7071 -0.0000
vn -0.0000 0.7071 0.7071
vn -0.0000 0.7071 -0.7071
vn -1.0000 -0.0000 -0.0000
vn 0.2283 -0.9736 -0.0000
vn 0.2094 -0.8926 0.3992
vn 0.0250 -0.9997 -0.0000
vn 0.9384 -0.3456 -0.0000
vt 0.672452 0.010897
vt 0.667237 0.011685
vt 0.886686 0.652018
vt 0.680741 0.002607
vt 0.665768 0.002607
vt 0.928136 0.652018
vt 0.334202 0.997393
vt 0.722191 0.002607
vt 0.334202 0.989103
vt 0.730481 0.010897
vt 0.791808 0.002607
vt 0.680741 0.997393
vt 0.665768 0.992224
vt 0.783518 0.002967
vt 0.672451 0.989103
vt 0.667237 0.984808
vt 0.334203 0.010897
vt 0.730481 0.989103
vt 0.833257 0.002607
vt 0.334203 0.002607
vt 0.722191 0.997393
vt 0.349045 0.092822
vt 0.737276 0.873044
vt 0.339417 0.091055
vt 0.423548 0.016150
vt 0.886686 0.403659
vt 0.421005 0.007092
vt 0.359132 0.054587
vt 0.735695 0.914494
vt 0.886686 0.329806
vt 0.350348 0.049621
vt 0.385903 0.027036
vt 0.886686 0.361688
vt 0.380211 0.018888
vt 0.086598 0.989103
vt 0.928136 0.403659
vt 0.085506 0.997393
vt 0.010897 0.913402
vt 0.778303 0.873044
vt 0.002607 0.914494
vt 0.048348 0.978854
vt 0.928136 0.361688
vt 0.044057 0.986286
vt 0.021146 0.951652
vt 0.776723 0.914494
vt 0.928136 0.329806
vt 0.013714 0.955943
vt 0.783518 0.250339
vt 0.791808 0.251070
vt 0.421005 0.996709
vt 0.349045 0.915331
vt 0.737276 0.044057
vt 0.339417 0.915736
vt 0.385903 0.979768
vt 0.783518 0.288997
vt 0.791808 0.292962
vt 0.380211 0.986408
vt 0.359131 0.953198
vt 0.791808 0.324592
vt 0.735696 0.002607
vt 0.350348 0.956770
vt 0.010897 0.086598
vt 0.778303 0.044057
vt 0.002607 0.085506
vt 0.086597 0.010897
vt 0.833257 0.251070
vt 0.085506 0.002607
vt 0.021146 0.048348
vt 0.833257 0.324592
vt 0.776723 0.002607
vt 0.013714 0.044057
vt 0.048348 0.021146
vt 0.833257 0.292962
vt 0.044057 0.013714
vt 0.672452 0.173932
vt 0.881471 0.817630
vt 0.914234 0.244127
vt 0.667237 0.173872
vt 0.672452 0.209297
vt 0.878868 0.244127
vt 0.881471 0.329806
vt 0.667237 0.209054
vt 0.881471 0.658543
vt 0.873653 0.146173
vt 0.672451 0.790703
vt 0.886686 0.755186
vt 0.917404 0.100561
vt 0.672451 0.826068
vt 0.881471 0.494175
vt 0.882038 0.100561
vt 0.667237 0.822621
vt 0.881471 0.488960
vt 0.838472 0.146361
vt 0.840905 0.140959
vt 0.881471 0.653328
vt 0.876087 0.140959
vt 0.881471 0.518574
vt 0.838472 0.008211
vt 0.911076 0.755186
vt 0.881471 0.354206
vt 0.873653 0.284527
vt 0.849837 0.793240
vt 0.783518 0.891964
vt 0.783518 0.817630
vt 0.914234 0.146173
vt 0.783518 0.822845
vt 0.878868 0.146173
vt 0.783518 0.329806
vt 0.818884 0.822845
vt 0.886686 0.657233
vt 0.917404 0.002607
vt 0.824098 0.822845
vt 0.783518 0.494175
vt 0.882038 0.002607
vt 0.859464 0.822845
vt 0.841642 0.002607
vt 0.911076 0.723552
vt 0.824098 0.891964
vt 0.838472 0.284714
vt 0.849837 0.354206
vt 0.818884 0.891964
vt 0.881471 0.793240
vt 0.876823 0.002607
vt 0.849837 0.518574
vt 0.859464 0.891964
s 0
usemtl Material.001
f 12/26/1 18/36/1 3/6/1 2/3/1
f 33/62/2 37/68/2 39/72/2 35/65/2 7/17/2 4/9/2 17/35/2 21/41/2 23/44/2 19/38/2
f 5/11/3 8/19/3 36/66/3 26/49/3
f 18/36/4 12/26/4 16/33/4 22/42/4
f 24/45/5 14/29/5 10/23/5 20/39/5
f 38/69/6 32/59/6 30/56/6 40/73/6
f 34/63/7 28/52/7 32/60/7 38/70/7
f 22/42/8 16/33/8 14/30/8 24/46/8
f 40/73/9 30/56/9 26/49/9 36/66/9
f 28/52/10 34/63/10 20/39/10 10/23/10
f 37/68/11 33/62/11 34/64/11 38/71/11
f 27/51/12 31/58/12 32/61/12 28/53/12
f 39/72/13 37/68/13 38/71/13 40/74/13
f 31/58/14 29/54/14 30/57/14 32/61/14
f 35/65/15 39/72/15 40/74/15 36/67/15
f 29/55/16 25/48/16 26/49/16 30/56/16
f 21/41/17 17/35/17 18/37/17 22/43/17
f 11/25/18 15/32/18 16/34/18 12/27/18
f 23/44/19 21/41/19 22/43/19 24/47/19
f 15/32/20 13/28/20 14/31/20 16/34/20
f 19/38/21 23/44/21 24/47/21 20/40/21
f 13/28/22 9/22/22 10/24/22 14/31/22
f 5/11/23 26/49/23 25/48/23 6/14/23
f 28/53/24 10/24/24 9/22/24 27/51/24
f 12/27/25 2/5/25 1/2/25 11/25/25
f 33/62/26 19/38/26 20/40/26 34/64/26
f 17/35/27 4/9/27 3/7/27 18/37/27
f 36/67/28 8/20/28 7/17/28 35/65/28
f 6/15/29 45/88/29 42/79/29 44/85/29 41/75/29 1/1/29 2/4/29 3/8/29 4/10/29 7/18/29 8/21/29 5/12/29
f 52/102/1 43/83/1 59/122/1
f 48/96/30 47/94/30 57/116/30 60/123/30
f 48/95/3 60/124/3 49/97/3
f 50/98/31 57/116/31 60/123/31 48/96/31 47/94/31
f 51/100/3 46/92/3 58/120/3
f 46/93/30 43/84/30 52/101/30 58/119/30
f 41/76/1 53/104/1 52/102/1 59/122/1
f 53/105/29 41/77/29 42/80/29 54/107/29
f 42/81/3 51/100/3 58/120/3 54/108/3
f 56/113/3 45/89/3 49/97/3 60/124/3
f 44/86/1 55/110/1 57/117/1 50/99/1
f 56/114/29 55/111/29 44/87/29 45/90/29
s 1
f 26/50/32 30/57/32 32/61/32 28/53/32 10/24/32 14/31/32 16/34/32 12/27/32 2/5/32 1/2/32 41/78/32 42/82/32 45/91/32 6/16/32 5/13/32
s 0
f 55/112/33 56/115/33 60/125/33 57/118/33
f 54/109/33 58/121/33 52/103/33 53/106/33
l 2 42
