# Blender 3.5.1
# www.blender.org
mtllib kaktus_trzon.mtl
o Kaktus-main
v 0.000000 0.000000 -0.358148
v 0.000000 2.990623 -0.457700
v 0.069871 0.000000 -0.351266
v 0.089293 2.990623 -0.448905
v 0.137057 0.000000 -0.330885
v 0.175154 2.990623 -0.422860
v 0.198976 0.000000 -0.297789
v 0.254284 2.990623 -0.380564
v 0.253249 0.000000 -0.253249
v 0.323643 2.990623 -0.323643
v 0.297789 0.000000 -0.198976
v 0.380564 2.990623 -0.254284
v 0.330885 0.000000 -0.137057
v 0.422860 2.990623 -0.175154
v 0.351266 0.000000 -0.069871
v 0.448905 2.990623 -0.089293
v 0.358148 0.000000 0.000000
v 0.457700 2.990623 0.000000
v 0.351266 0.000000 0.069871
v 0.448905 2.990623 0.089293
v 0.330885 0.000000 0.137057
v 0.422860 2.990623 0.175154
v 0.297789 0.000000 0.198976
v 0.380564 2.990623 0.254284
v 0.253249 0.000000 0.253249
v 0.323643 2.990623 0.323643
v 0.198976 0.000000 0.297789
v 0.254284 2.990623 0.380564
v 0.137057 0.000000 0.330885
v 0.175154 2.990623 0.422860
v 0.069871 0.000000 0.351266
v 0.089293 2.990623 0.448905
v 0.000000 0.000000 0.358148
v 0.000000 2.990623 0.457700
v -0.069871 0.000000 0.351266
v -0.089293 2.990623 0.448905
v -0.137057 0.000000 0.330885
v -0.175154 2.990623 0.422860
v -0.198976 0.000000 0.297789
v -0.254284 2.990623 0.380564
v -0.253249 0.000000 0.253249
v -0.323643 2.990623 0.323643
v -0.297789 0.000000 0.198976
v -0.380564 2.990623 0.254284
v -0.330885 0.000000 0.137057
v -0.422860 2.990623 0.175154
v -0.351266 0.000000 0.069871
v -0.448905 2.990623 0.089293
v -0.358148 0.000000 0.000000
v -0.457700 2.990623 0.000000
v -0.351266 0.000000 -0.069871
v -0.448905 2.990623 -0.089293
v -0.330885 0.000000 -0.137057
v -0.422860 2.990623 -0.175154
v -0.297789 0.000000 -0.198976
v -0.380564 2.990623 -0.254284
v -0.253249 0.000000 -0.253249
v -0.323643 2.990623 -0.323643
v -0.198976 0.000000 -0.297789
v -0.254284 2.990623 -0.380564
v -0.137057 0.000000 -0.330885
v -0.175154 2.990623 -0.422860
v -0.069871 0.000000 -0.351266
v -0.089293 2.990623 -0.448905
v -0.000000 3.138399 -0.442649
v 0.086357 3.138399 -0.434144
v 0.169394 3.138399 -0.408954
v 0.245923 3.138399 -0.368049
v 0.313000 3.138399 -0.313000
v 0.368049 3.138399 -0.245923
v 0.408954 3.138399 -0.169394
v 0.434144 3.138399 -0.086357
v 0.442649 3.138399 0.000000
v 0.434144 3.138399 0.086357
v 0.408954 3.138399 0.169394
v 0.368049 3.138399 0.245923
v 0.313000 3.138399 0.313000
v 0.245923 3.138399 0.368049
v 0.169394 3.138399 0.408954
v 0.086357 3.138399 0.434144
v -0.000000 3.138399 0.442649
v -0.086357 3.138399 0.434144
v -0.169394 3.138399 0.408954
v -0.245923 3.138399 0.368049
v -0.313000 3.138399 0.313000
v -0.368049 3.138399 0.245923
v -0.408954 3.138399 0.169394
v -0.434144 3.138399 0.086357
v -0.442649 3.138399 0.000000
v -0.434144 3.138399 -0.086357
v -0.408954 3.138399 -0.169394
v -0.368049 3.138399 -0.245923
v -0.313000 3.138399 -0.313000
v -0.245923 3.138399 -0.368049
v -0.169394 3.138399 -0.408954
v -0.086357 3.138399 -0.434144
v 0.000000 3.259604 -0.400950
v 0.078222 3.259604 -0.393246
v 0.153437 3.259604 -0.370430
v 0.222756 3.259604 -0.333378
v 0.283515 3.259604 -0.283515
v 0.333378 3.259604 -0.222756
v 0.370430 3.259604 -0.153437
v 0.393246 3.259604 -0.078222
v 0.400950 3.259604 0.000000
v 0.393246 3.259604 0.078222
v 0.370430 3.259604 0.153437
v 0.333378 3.259604 0.222756
v 0.283515 3.259604 0.283515
v 0.222756 3.259604 0.333378
v 0.153437 3.259604 0.370430
v 0.078222 3.259604 0.393246
v 0.000000 3.259604 0.400950
v -0.078222 3.259604 0.393246
v -0.153437 3.259604 0.370430
v -0.222756 3.259604 0.333378
v -0.283515 3.259604 0.283515
v -0.333378 3.259604 0.222756
v -0.370430 3.259604 0.153437
v -0.393246 3.259604 0.078222
v -0.400950 3.259604 0.000000
v -0.393246 3.259604 -0.078222
v -0.370430 3.259604 -0.153437
v -0.333378 3.259604 -0.222756
v -0.283515 3.259604 -0.283515
v -0.222756 3.259604 -0.333378
v -0.153437 3.259604 -0.370430
v -0.078222 3.259604 -0.393246
v 0.000000 3.360476 -0.327225
v 0.063838 3.360476 -0.320937
v 0.125224 3.360476 -0.302316
v 0.181796 3.360476 -0.272078
v 0.231383 3.360476 -0.231383
v 0.272078 3.360476 -0.181796
v 0.302316 3.360476 -0.125224
v 0.320937 3.360476 -0.063838
v 0.327225 3.360476 0.000000
v 0.320937 3.360476 0.063838
v 0.302316 3.360476 0.125224
v 0.272078 3.360476 0.181796
v 0.231383 3.360476 0.231383
v 0.181796 3.360476 0.272078
v 0.125224 3.360476 0.302316
v 0.063838 3.360476 0.320937
v 0.000000 3.360476 0.327225
v -0.063838 3.360476 0.320937
v -0.125224 3.360476 0.302316
v -0.181796 3.360476 0.272078
v -0.231383 3.360476 0.231383
v -0.272078 3.360476 0.181796
v -0.302316 3.360476 0.125224
v -0.320937 3.360476 0.063838
v -0.327225 3.360476 0.000000
v -0.320937 3.360476 -0.063838
v -0.302316 3.360476 -0.125224
v -0.272078 3.360476 -0.181796
v -0.231383 3.360476 -0.231383
v -0.181796 3.360476 -0.272078
v -0.125224 3.360476 -0.302316
v -0.063838 3.360476 -0.320937
v 0.000000 3.454100 -0.220838
v 0.043083 3.454100 -0.216595
v 0.084511 3.454100 -0.204028
v 0.122691 3.454100 -0.183620
v 0.156156 3.454100 -0.156156
v 0.183620 3.454100 -0.122691
v 0.204028 3.454100 -0.084511
v 0.216595 3.454100 -0.043083
v 0.220838 3.454100 0.000000
v 0.216595 3.454100 0.043083
v 0.204028 3.454100 0.084511
v 0.183620 3.454100 0.122691
v 0.156156 3.454100 0.156156
v 0.122691 3.454100 0.183620
v 0.084511 3.454100 0.204028
v 0.043083 3.454100 0.216595
v 0.000000 3.454100 0.220838
v -0.043083 3.454100 0.216595
v -0.084511 3.454100 0.204028
v -0.122691 3.454100 0.183620
v -0.156156 3.454100 0.156156
v -0.183620 3.454100 0.122691
v -0.204028 3.454100 0.084511
v -0.216595 3.454100 0.043083
v -0.220838 3.454100 0.000000
v -0.216595 3.454100 -0.043083
v -0.204028 3.454100 -0.084511
v -0.183620 3.454100 -0.122691
v -0.156156 3.454100 -0.156156
v -0.122691 3.454100 -0.183620
v -0.084511 3.454100 -0.204028
v -0.043083 3.454100 -0.216595
v 0.000000 3.527663 0.000000
vn -0.0000 -0.0333 -0.9994
vn -0.0000 0.0340 -0.9994
vn 0.1950 0.0340 -0.9802
vn 0.1950 -0.0333 -0.9802
vn 0.3825 0.0340 -0.9233
vn 0.3825 -0.0333 -0.9234
vn 0.5552 0.0340 -0.8310
vn 0.5553 -0.0333 -0.8310
vn 0.7067 0.0340 -0.7067
vn 0.7067 -0.0333 -0.7067
vn 0.8310 0.0340 -0.5552
vn 0.8310 -0.0333 -0.5553
vn 0.9233 0.0340 -0.3825
vn 0.9234 -0.0333 -0.3825
vn 0.9802 0.0340 -0.1950
vn 0.9802 -0.0333 -0.1950
vn 0.9994 0.0340 -0.0000
vn 0.9994 -0.0333 -0.0000
vn 0.9802 0.0340 0.1950
vn 0.9802 -0.0333 0.1950
vn 0.9233 0.0340 0.3825
vn 0.9234 -0.0333 0.3825
vn 0.8310 0.0340 0.5552
vn 0.8310 -0.0333 0.5553
vn 0.7067 0.0340 0.7067
vn 0.7067 -0.0333 0.7067
vn 0.5552 0.0340 0.8310
vn 0.5553 -0.0333 0.8310
vn 0.3825 0.0340 0.9233
vn 0.3825 -0.0333 0.9234
vn 0.1950 0.0340 0.9802
vn 0.1950 -0.0333 0.9802
vn -0.0000 0.0340 0.9994
vn -0.0000 -0.0333 0.9994
vn -0.1950 0.0340 0.9802
vn -0.1950 -0.0333 0.9802
vn -0.3825 0.0340 0.9233
vn -0.3825 -0.0333 0.9234
vn -0.5552 0.0340 0.8310
vn -0.5553 -0.0333 0.8310
vn -0.7067 0.0340 0.7067
vn -0.7067 -0.0333 0.7067
vn -0.8310 0.0340 0.5552
vn -0.8310 -0.0333 0.5553
vn -0.9233 0.0340 0.3825
vn -0.9234 -0.0333 0.3825
vn -0.9802 0.0340 0.1950
vn -0.9802 -0.0333 0.1950
vn -0.9994 0.0340 -0.0000
vn -0.9994 -0.0333 -0.0000
vn -0.9802 0.0340 -0.1950
vn -0.9802 -0.0333 -0.1950
vn -0.9233 0.0340 -0.3825
vn -0.9234 -0.0333 -0.3825
vn -0.8310 0.0340 -0.5552
vn -0.8310 -0.0333 -0.5553
vn -0.7067 0.0340 -0.7067
vn -0.7067 -0.0333 -0.7067
vn -0.5552 0.0340 -0.8310
vn -0.5553 -0.0333 -0.8310
vn -0.3825 0.0340 -0.9233
vn -0.3825 -0.0333 -0.9234
vn 0.5428 0.2133 -0.8123
vn 0.6908 0.2133 -0.6908
vn -0.1950 0.0340 -0.9802
vn -0.1950 -0.0333 -0.9802
vn 0.9582 0.2133 0.1906
vn 0.9770 0.2133 -0.0000
vn 0.8884 0.4591 -0.0000
vn 0.8713 0.4591 0.1733
vn 0.6908 0.2133 0.6908
vn 0.5428 0.2133 0.8123
vn -0.8123 0.2133 0.5428
vn -0.9026 0.2133 0.3739
vn -0.3739 0.2133 -0.9026
vn -0.1906 0.2133 -0.9582
vn -0.1906 0.2133 0.9582
vn -0.3739 0.2133 0.9026
vn -0.9026 0.2133 -0.3739
vn -0.8123 0.2133 -0.5428
vn 0.8123 0.2133 -0.5428
vn 0.3739 0.2133 0.9026
vn -0.9582 0.2133 0.1906
vn -0.0000 0.2133 -0.9770
vn 0.1906 0.2133 -0.9582
vn 0.9026 0.2133 0.3739
vn -0.5428 0.2133 0.8123
vn -0.6908 0.2133 -0.6908
vn 0.9026 0.2133 -0.3739
vn 0.1906 0.2133 0.9582
vn -0.9770 0.2133 -0.0000
vn 0.3739 0.2133 -0.9026
vn 0.8123 0.2133 0.5428
vn -0.6908 0.2133 0.6908
vn -0.5428 0.2133 -0.8123
vn 0.9582 0.2133 -0.1906
vn -0.0000 0.2133 0.9770
vn -0.9582 0.2133 -0.1906
vn 0.6282 0.4591 0.6282
vn 0.7387 0.4591 0.4936
vn 0.6165 0.6710 0.4119
vn 0.5243 0.6710 0.5243
vn -0.8208 0.4591 0.3400
vn -0.8713 0.4591 0.1733
vn 0.8208 0.4591 0.3400
vn -0.8884 0.4591 -0.0000
vn -0.8713 0.4591 -0.1733
vn -0.8208 0.4591 -0.3400
vn 0.4936 0.4591 0.7387
vn -0.7387 0.4591 -0.4936
vn 0.3400 0.4591 0.8208
vn -0.0000 0.4591 -0.8884
vn 0.1733 0.4591 -0.8713
vn -0.6282 0.4591 -0.6282
vn 0.1733 0.4591 0.8713
vn 0.3400 0.4591 -0.8208
vn -0.4936 0.4591 -0.7387
vn -0.0000 0.4591 0.8884
vn 0.4936 0.4591 -0.7387
vn -0.3400 0.4591 -0.8208
vn -0.1733 0.4591 0.8713
vn 0.6282 0.4591 -0.6282
vn -0.1733 0.4591 -0.8713
vn -0.3400 0.4591 0.8208
vn 0.7387 0.4591 -0.4936
vn -0.4936 0.4591 0.7387
vn 0.8208 0.4591 -0.3400
vn -0.6282 0.4591 0.6282
vn 0.8713 0.4591 -0.1733
vn -0.7387 0.4591 0.4936
vn 0.1446 0.6710 0.7272
vn 0.2837 0.6710 0.6850
vn 0.1942 0.8617 0.4689
vn 0.0990 0.8617 0.4977
vn -0.7272 0.6710 -0.1446
vn -0.6850 0.6710 -0.2837
vn 0.4119 0.6710 0.6165
vn -0.6165 0.6710 -0.4119
vn -0.0000 0.6710 -0.7414
vn 0.1446 0.6710 -0.7272
vn -0.5243 0.6710 -0.5243
vn 0.2837 0.6710 -0.6850
vn -0.4119 0.6710 -0.6165
vn -0.0000 0.6710 0.7414
vn 0.4119 0.6710 -0.6165
vn -0.2837 0.6710 -0.6850
vn -0.1446 0.6710 0.7272
vn 0.5243 0.6710 -0.5243
vn -0.1446 0.6710 -0.7272
vn -0.2837 0.6710 0.6850
vn 0.6165 0.6710 -0.4119
vn -0.4119 0.6710 0.6165
vn 0.6850 0.6710 -0.2837
vn -0.5243 0.6710 0.5243
vn 0.7272 0.6710 -0.1446
vn -0.6165 0.6710 0.4119
vn 0.7414 0.6710 -0.0000
vn -0.6850 0.6710 0.2837
vn 0.7272 0.6710 0.1446
vn -0.7272 0.6710 0.1446
vn 0.6850 0.6710 0.2837
vn -0.7414 0.6710 -0.0000
vn 0.0990 0.8617 -0.4977
vn 0.1942 0.8617 -0.4689
vn -0.3589 0.8617 -0.3589
vn -0.2819 0.8617 -0.4220
vn -0.0000 0.8617 0.5075
vn 0.2819 0.8617 -0.4220
vn -0.1942 0.8617 -0.4689
vn -0.0990 0.8617 0.4977
vn 0.3589 0.8617 -0.3589
vn -0.0990 0.8617 -0.4977
vn -0.1942 0.8617 0.4689
vn 0.4220 0.8617 -0.2820
vn -0.0000 0.8617 -0.5075
vn -0.2819 0.8617 0.4220
vn 0.4689 0.8617 -0.1942
vn -0.3589 0.8617 0.3589
vn 0.4977 0.8617 -0.0990
vn -0.4220 0.8617 0.2820
vn 0.5075 0.8617 -0.0000
vn -0.4689 0.8617 0.1942
vn 0.4977 0.8617 0.0990
vn -0.4977 0.8617 0.0990
vn 0.4689 0.8617 0.1942
vn -0.5075 0.8617 -0.0000
vn 0.4220 0.8617 0.2820
vn -0.4977 0.8617 -0.0990
vn 0.3589 0.8617 0.3589
vn -0.4689 0.8617 -0.1942
vn 0.2819 0.8617 0.4220
vn -0.4220 0.8617 -0.2820
vn -0.0000 1.0000 -0.0000
vt 0.490710 0.994055
vt 0.485502 0.247998
vt 0.509112 0.994386
vt 0.505926 0.241319
vt 0.527586 0.994787
vt 0.527452 0.233487
vt 0.546149 0.995269
vt 0.550194 0.224501
vt 0.564822 0.995841
vt 0.574251 0.214514
vt 0.583625 0.996512
vt 0.599808 0.203831
vt 0.602575 0.997288
vt 0.626948 0.193215
vt 0.621683 0.998176
vt 0.656077 0.182629
vt 0.640961 0.999173
vt 0.047846 0.999173
vt 0.000827 0.174492
vt 0.685470 0.176665
vt 0.067200 0.998133
vt 0.030444 0.181154
vt 0.086513 0.997204
vt 0.059722 0.192358
vt 0.105634 0.996388
vt 0.087417 0.204176
vt 0.124565 0.995682
vt 0.113500 0.215477
vt 0.143329 0.995081
vt 0.137631 0.225336
vt 0.161960 0.994577
vt 0.160715 0.234497
vt 0.180476 0.994163
vt 0.182533 0.242344
vt 0.198899 0.993829
vt 0.203203 0.248944
vt 0.217251 0.993565
vt 0.222684 0.254431
vt 0.235551 0.993361
vt 0.241611 0.259080
vt 0.253809 0.993210
vt 0.259807 0.262804
vt 0.272036 0.993102
vt 0.277444 0.265722
vt 0.290240 0.993031
vt 0.294612 0.267893
vt 0.308431 0.992992
vt 0.311455 0.269384
vt 0.326612 0.992979
vt 0.328052 0.270289
vt 0.344791 0.992989
vt 0.344577 0.270516
vt 0.362971 0.993022
vt 0.361112 0.270178
vt 0.381157 0.993076
vt 0.377722 0.269162
vt 0.399355 0.993155
vt 0.394508 0.267518
vt 0.417568 0.993259
vt 0.411577 0.265216
vt 0.435802 0.993395
vt 0.429237 0.262190
vt 0.454066 0.993568
vt 0.447280 0.258343
vt 0.472365 0.993786
vt 0.465983 0.253648
vt 0.473560 0.216480
vt 0.491733 0.208333
vt 0.510932 0.198532
vt 0.531270 0.187055
vt 0.552828 0.174105
vt 0.576336 0.159265
vt 0.602464 0.142630
vt 0.632819 0.123539
vt 0.018393 0.101006
vt 0.670166 0.103149
vt 0.055355 0.122252
vt 0.085517 0.141878
vt 0.111512 0.159217
vt 0.135034 0.174556
vt 0.156815 0.187552
vt 0.177154 0.199092
vt 0.196457 0.208946
vt 0.214774 0.217158
vt 0.232521 0.224005
vt 0.249617 0.229829
vt 0.266116 0.234455
vt 0.282304 0.238164
vt 0.298086 0.240891
vt 0.313690 0.242842
vt 0.329148 0.243919
vt 0.344471 0.244297
vt 0.359793 0.243771
vt 0.375191 0.242591
vt 0.390739 0.240604
vt 0.406513 0.237793
vt 0.422572 0.233933
vt 0.439017 0.229258
vt 0.455932 0.223523
vt 0.460850 0.190697
vt 0.476863 0.181301
vt 0.493259 0.170258
vt 0.510225 0.157305
vt 0.528283 0.141974
vt 0.547825 0.123194
vt 0.569191 0.101307
vt 0.593341 0.073914
vt 0.622963 0.039271
vt 0.066776 0.039024
vt 0.095608 0.073807
vt 0.119429 0.101470
vt 0.140215 0.123130
vt 0.159538 0.141885
vt 0.177816 0.157488
vt 0.194902 0.170566
vt 0.211344 0.181626
vt 0.227528 0.191208
vt 0.243072 0.198949
vt 0.258170 0.205465
vt 0.273059 0.210740
vt 0.287592 0.214919
vt 0.301958 0.217959
vt 0.316171 0.220182
vt 0.330297 0.221500
vt 0.344368 0.221863
vt 0.358414 0.221356
vt 0.372505 0.220011
vt 0.386712 0.217761
vt 0.401085 0.214555
vt 0.415566 0.210303
vt 0.430300 0.205102
vt 0.445484 0.198498
vt 0.445164 0.165795
vt 0.458107 0.155775
vt 0.471112 0.143883
vt 0.484049 0.130127
vt 0.497234 0.113160
vt 0.509984 0.093869
vt 0.522913 0.068990
vt 0.535034 0.039006
vt 0.546580 0.000827
vt 0.142281 0.001951
vt 0.153547 0.039775
vt 0.165479 0.069703
vt 0.178181 0.093770
vt 0.190904 0.113143
vt 0.204116 0.130142
vt 0.217189 0.144286
vt 0.230200 0.156203
vt 0.243133 0.166094
vt 0.256090 0.174575
vt 0.268840 0.181349
vt 0.281541 0.186876
vt 0.294150 0.191214
vt 0.306770 0.194661
vt 0.319310 0.196970
vt 0.331826 0.198315
vt 0.344313 0.198762
vt 0.356780 0.198270
vt 0.369251 0.196900
vt 0.381780 0.194502
vt 0.394351 0.191105
vt 0.406964 0.186647
vt 0.419625 0.181008
vt 0.432317 0.174244
vt 0.421019 0.136848
vt 0.429527 0.127583
vt 0.437433 0.116738
vt 0.444559 0.103839
vt 0.450594 0.089239
vt 0.455160 0.072005
vt 0.457547 0.052609
vt 0.456785 0.030561
vt 0.451923 0.005037
vt 0.236108 0.005484
vt 0.231354 0.030924
vt 0.230664 0.052854
vt 0.233155 0.072595
vt 0.237635 0.089729
vt 0.243621 0.104322
vt 0.250755 0.116928
vt 0.258705 0.127762
vt 0.267252 0.137002
vt 0.276242 0.144813
vt 0.285537 0.151523
vt 0.295037 0.157040
vt 0.304686 0.161470
vt 0.314478 0.164684
vt 0.324355 0.166911
vt 0.334285 0.168184
vt 0.344232 0.168715
vt 0.354170 0.168324
vt 0.364076 0.166815
vt 0.373942 0.164549
vt 0.383718 0.161296
vt 0.393363 0.157012
vt 0.402823 0.151434
vt 0.412069 0.144681
vt 0.344073 0.079574
s 1
usemtl Material.001
f 1/1/1 2/2/2 4/4/3 3/3/4
f 3/3/4 4/4/3 6/6/5 5/5/6
f 5/5/6 6/6/5 8/8/7 7/7/8
f 7/7/8 8/8/7 10/10/9 9/9/10
f 9/9/10 10/10/9 12/12/11 11/11/12
f 11/11/12 12/12/11 14/14/13 13/13/14
f 13/13/14 14/14/13 16/16/15 15/15/16
f 15/15/16 16/16/15 18/20/17 17/17/18
f 17/18/18 18/19/17 20/22/19 19/21/20
f 19/21/20 20/22/19 22/24/21 21/23/22
f 21/23/22 22/24/21 24/26/23 23/25/24
f 23/25/24 24/26/23 26/28/25 25/27/26
f 25/27/26 26/28/25 28/30/27 27/29/28
f 27/29/28 28/30/27 30/32/29 29/31/30
f 29/31/30 30/32/29 32/34/31 31/33/32
f 31/33/32 32/34/31 34/36/33 33/35/34
f 33/35/34 34/36/33 36/38/35 35/37/36
f 35/37/36 36/38/35 38/40/37 37/39/38
f 37/39/38 38/40/37 40/42/39 39/41/40
f 39/41/40 40/42/39 42/44/41 41/43/42
f 41/43/42 42/44/41 44/46/43 43/45/44
f 43/45/44 44/46/43 46/48/45 45/47/46
f 45/47/46 46/48/45 48/50/47 47/49/48
f 47/49/48 48/50/47 50/52/49 49/51/50
f 49/51/50 50/52/49 52/54/51 51/53/52
f 51/53/52 52/54/51 54/56/53 53/55/54
f 53/55/54 54/56/53 56/58/55 55/57/56
f 55/57/56 56/58/55 58/60/57 57/59/58
f 57/59/58 58/60/57 60/62/59 59/61/60
f 59/61/60 60/62/59 62/64/61 61/63/62
f 10/10/9 8/8/7 68/70/63 69/71/64
f 61/63/62 62/64/61 64/66/65 63/65/66
f 63/65/66 64/66/65 2/2/2 1/1/1
f 74/77/67 73/75/68 105/109/69 106/110/70
f 28/30/27 26/28/25 77/80/71 78/81/72
f 46/48/45 44/46/43 86/89/73 87/90/74
f 64/66/65 62/64/61 95/98/75 96/99/76
f 20/22/19 18/19/17 73/75/68 74/77/67
f 38/40/37 36/38/35 82/85/77 83/86/78
f 56/58/55 54/56/53 91/94/79 92/95/80
f 12/12/11 10/10/9 69/71/64 70/72/81
f 30/32/29 28/30/27 78/81/72 79/82/82
f 48/50/47 46/48/45 87/90/74 88/91/83
f 4/4/3 2/2/2 65/67/84 66/68/85
f 2/2/2 64/66/65 96/99/76 65/67/84
f 22/24/21 20/22/19 74/77/67 75/78/86
f 40/42/39 38/40/37 83/86/78 84/87/87
f 58/60/57 56/58/55 92/95/80 93/96/88
f 14/14/13 12/12/11 70/72/81 71/73/89
f 32/34/31 30/32/29 79/82/82 80/83/90
f 50/52/49 48/50/47 88/91/83 89/92/91
f 6/6/5 4/4/3 66/68/85 67/69/92
f 24/26/23 22/24/21 75/78/86 76/79/93
f 42/44/41 40/42/39 84/87/87 85/88/94
f 60/62/59 58/60/57 93/96/88 94/97/95
f 16/16/15 14/14/13 71/73/89 72/74/96
f 34/36/33 32/34/31 80/83/90 81/84/97
f 52/54/51 50/52/49 89/92/91 90/93/98
f 8/8/7 6/6/5 67/69/92 68/70/63
f 26/28/25 24/26/23 76/79/93 77/80/71
f 44/46/43 42/44/41 85/88/94 86/89/73
f 62/64/61 60/62/59 94/97/95 95/98/75
f 18/20/17 16/16/15 72/74/96 73/76/68
f 36/38/35 34/36/33 81/84/97 82/85/77
f 54/56/53 52/54/51 90/93/98 91/94/79
f 109/113/99 108/112/100 140/145/101 141/146/102
f 88/91/83 87/90/74 119/123/103 120/124/104
f 75/78/86 74/77/67 106/110/70 107/111/105
f 89/92/91 88/91/83 120/124/104 121/125/106
f 76/79/93 75/78/86 107/111/105 108/112/100
f 90/93/98 89/92/91 121/125/106 122/126/107
f 77/80/71 76/79/93 108/112/100 109/113/99
f 91/94/79 90/93/98 122/126/107 123/127/108
f 78/81/72 77/80/71 109/113/99 110/114/109
f 92/95/80 91/94/79 123/127/108 124/128/110
f 79/82/82 78/81/72 110/114/109 111/115/111
f 66/68/85 65/67/84 97/100/112 98/101/113
f 93/96/88 92/95/80 124/128/110 125/129/114
f 80/83/90 79/82/82 111/115/111 112/116/115
f 67/69/92 66/68/85 98/101/113 99/102/116
f 94/97/95 93/96/88 125/129/114 126/130/117
f 81/84/97 80/83/90 112/116/115 113/117/118
f 68/70/63 67/69/92 99/102/116 100/103/119
f 95/98/75 94/97/95 126/130/117 127/131/120
f 82/85/77 81/84/97 113/117/118 114/118/121
f 69/71/64 68/70/63 100/103/119 101/104/122
f 96/99/76 95/98/75 127/131/120 128/132/123
f 83/86/78 82/85/77 114/118/121 115/119/124
f 70/72/81 69/71/64 101/104/122 102/105/125
f 65/67/84 96/99/76 128/132/123 97/100/112
f 84/87/87 83/86/78 115/119/124 116/120/126
f 71/73/89 70/72/81 102/105/125 103/106/127
f 85/88/94 84/87/87 116/120/126 117/121/128
f 72/74/96 71/73/89 103/106/127 104/107/129
f 86/89/73 85/88/94 117/121/128 118/122/130
f 73/76/68 72/74/96 104/107/129 105/108/69
f 87/90/74 86/89/73 118/122/130 119/123/103
f 144/149/131 143/148/132 175/181/133 176/182/134
f 123/127/108 122/126/107 154/159/135 155/160/136
f 110/114/109 109/113/99 141/146/102 142/147/137
f 124/128/110 123/127/108 155/160/136 156/161/138
f 111/115/111 110/114/109 142/147/137 143/148/132
f 98/101/113 97/100/112 129/133/139 130/134/140
f 125/129/114 124/128/110 156/161/138 157/162/141
f 112/116/115 111/115/111 143/148/132 144/149/131
f 99/102/116 98/101/113 130/134/140 131/135/142
f 126/130/117 125/129/114 157/162/141 158/163/143
f 113/117/118 112/116/115 144/149/131 145/150/144
f 100/103/119 99/102/116 131/135/142 132/136/145
f 127/131/120 126/130/117 158/163/143 159/164/146
f 114/118/121 113/117/118 145/150/144 146/151/147
f 101/104/122 100/103/119 132/136/145 133/137/148
f 128/132/123 127/131/120 159/164/146 160/165/149
f 115/119/124 114/118/121 146/151/147 147/152/150
f 102/105/125 101/104/122 133/137/148 134/138/151
f 97/100/112 128/132/123 160/165/149 129/133/139
f 116/120/126 115/119/124 147/152/150 148/153/152
f 103/106/127 102/105/125 134/138/151 135/139/153
f 117/121/128 116/120/126 148/153/152 149/154/154
f 104/107/129 103/106/127 135/139/153 136/140/155
f 118/122/130 117/121/128 149/154/154 150/155/156
f 105/108/69 104/107/129 136/140/155 137/141/157
f 119/123/103 118/122/130 150/155/156 151/156/158
f 106/110/70 105/109/69 137/142/157 138/143/159
f 120/124/104 119/123/103 151/156/158 152/157/160
f 107/111/105 106/110/70 138/143/159 139/144/161
f 121/125/106 120/124/104 152/157/160 153/158/162
f 108/112/100 107/111/105 139/144/161 140/145/101
f 122/126/107 121/125/106 153/158/162 154/159/135
f 131/135/142 130/134/140 162/167/163 163/168/164
f 158/163/143 157/162/141 189/195/165 190/196/166
f 145/150/144 144/149/131 176/182/134 177/183/167
f 132/136/145 131/135/142 163/168/164 164/169/168
f 159/164/146 158/163/143 190/196/166 191/197/169
f 146/151/147 145/150/144 177/183/167 178/184/170
f 133/137/148 132/136/145 164/169/168 165/170/171
f 160/165/149 159/164/146 191/197/169 192/198/172
f 147/152/150 146/151/147 178/184/170 179/185/173
f 134/138/151 133/137/148 165/170/171 166/171/174
f 129/133/139 160/165/149 192/198/172 161/166/175
f 148/153/152 147/152/150 179/185/173 180/186/176
f 135/139/153 134/138/151 166/171/174 167/172/177
f 149/154/154 148/153/152 180/186/176 181/187/178
f 136/140/155 135/139/153 167/172/177 168/173/179
f 150/155/156 149/154/154 181/187/178 182/188/180
f 137/141/157 136/140/155 168/173/179 169/174/181
f 151/156/158 150/155/156 182/188/180 183/189/182
f 138/143/159 137/142/157 169/175/181 170/176/183
f 152/157/160 151/156/158 183/189/182 184/190/184
f 139/144/161 138/143/159 170/176/183 171/177/185
f 153/158/162 152/157/160 184/190/184 185/191/186
f 140/145/101 139/144/161 171/177/185 172/178/187
f 154/159/135 153/158/162 185/191/186 186/192/188
f 141/146/102 140/145/101 172/178/187 173/179/189
f 155/160/136 154/159/135 186/192/188 187/193/190
f 142/147/137 141/146/102 173/179/189 174/180/191
f 156/161/138 155/160/136 187/193/190 188/194/192
f 143/148/132 142/147/137 174/180/191 175/181/133
f 130/134/140 129/133/139 161/166/175 162/167/163
f 157/162/141 156/161/138 188/194/192 189/195/165
f 182/188/180 181/187/178 193/199/193
f 169/174/181 168/173/179 193/199/193
f 183/189/182 182/188/180 193/199/193
f 170/176/183 169/175/181 193/199/193
f 184/190/184 183/189/182 193/199/193
f 171/177/185 170/176/183 193/199/193
f 185/191/186 184/190/184 193/199/193
f 172/178/187 171/177/185 193/199/193
f 186/192/188 185/191/186 193/199/193
f 173/179/189 172/178/187 193/199/193
f 187/193/190 186/192/188 193/199/193
f 174/180/191 173/179/189 193/199/193
f 188/194/192 187/193/190 193/199/193
f 175/181/133 174/180/191 193/199/193
f 162/167/163 161/166/175 193/199/193
f 189/195/165 188/194/192 193/199/193
f 176/182/134 175/181/133 193/199/193
f 163/168/164 162/167/163 193/199/193
f 190/196/166 189/195/165 193/199/193
f 177/183/167 176/182/134 193/199/193
f 164/169/168 163/168/164 193/199/193
f 191/197/169 190/196/166 193/199/193
f 178/184/170 177/183/167 193/199/193
f 165/170/171 164/169/168 193/199/193
f 192/198/172 191/197/169 193/199/193
f 179/185/173 178/184/170 193/199/193
f 166/171/174 165/170/171 193/199/193
f 161/166/175 192/198/172 193/199/193
f 180/186/176 179/185/173 193/199/193
f 167/172/177 166/171/174 193/199/193
f 181/187/178 180/186/176 193/199/193
f 168/173/179 167/172/177 193/199/193
