# Blender 3.5.1
# www.blender.org
mtllib battery.mtl
o Cube
v -0.375000 -0.375000 -0.152972
v -0.152972 -0.375000 -0.375000
v -0.364133 -0.375000 -0.221583
v -0.332596 -0.375000 -0.283477
v -0.283477 -0.375000 -0.332596
v -0.221582 -0.375000 -0.364133
v -0.152972 -0.375000 0.375000
v -0.375000 -0.375000 0.152972
v -0.221583 -0.375000 0.364133
v -0.283477 -0.375000 0.332596
v -0.332596 -0.375000 0.283477
v -0.364133 -0.375000 0.221582
v -0.375000 0.375000 0.152972
v -0.152972 0.375000 0.375000
v -0.364133 0.375000 0.221583
v -0.332596 0.375000 0.283477
v -0.283477 0.375000 0.332596
v -0.221582 0.375000 0.364133
v -0.152972 0.375000 -0.375000
v -0.375000 0.375000 -0.152972
v -0.221583 0.375000 -0.364133
v -0.283477 0.375000 -0.332596
v -0.332596 0.375000 -0.283477
v -0.364133 0.375000 -0.221582
v 0.152972 -0.375000 -0.375000
v 0.375000 -0.375000 -0.152972
v 0.221583 -0.375000 -0.364133
v 0.283477 -0.375000 -0.332596
v 0.332596 -0.375000 -0.283477
v 0.364133 -0.375000 -0.221582
v 0.375000 0.375000 -0.152972
v 0.152972 0.375000 -0.375000
v 0.364133 0.375000 -0.221583
v 0.332596 0.375000 -0.283477
v 0.283477 0.375000 -0.332596
v 0.221582 0.375000 -0.364133
v 0.375000 -0.375000 0.152972
v 0.152972 -0.375000 0.375000
v 0.364133 -0.375000 0.221583
v 0.332596 -0.375000 0.283477
v 0.283477 -0.375000 0.332596
v 0.221582 -0.375000 0.364133
v 0.152972 0.375000 0.375000
v 0.375000 0.375000 0.152972
v 0.221583 0.375000 0.364133
v 0.283477 0.375000 0.332596
v 0.332596 0.375000 0.283477
v 0.364133 0.375000 0.221582
v -0.175000 -0.375000 0.116541
v -0.116541 -0.375000 0.175000
v -0.172139 -0.375000 0.134606
v -0.163835 -0.375000 0.150902
v -0.150902 -0.375000 0.163835
v -0.134606 -0.375000 0.172139
v -0.116541 0.375000 0.175000
v -0.175000 0.375000 0.116541
v -0.134606 0.375000 0.172139
v -0.150902 0.375000 0.163835
v -0.163835 0.375000 0.150902
v -0.172139 0.375000 0.134606
v -0.116541 -0.375000 -0.175000
v -0.175000 -0.375000 -0.116541
v -0.134606 -0.375000 -0.172139
v -0.150902 -0.375000 -0.163835
v -0.163835 -0.375000 -0.150902
v -0.172139 -0.375000 -0.134606
v -0.175000 0.375000 -0.116541
v -0.116541 0.375000 -0.175000
v -0.172139 0.375000 -0.134606
v -0.163835 0.375000 -0.150902
v -0.150902 0.375000 -0.163835
v -0.134606 0.375000 -0.172139
v 0.116541 -0.375000 0.175000
v 0.175000 -0.375000 0.116541
v 0.134606 -0.375000 0.172139
v 0.150902 -0.375000 0.163835
v 0.163835 -0.375000 0.150902
v 0.172139 -0.375000 0.134606
v 0.175000 0.375000 0.116541
v 0.116541 0.375000 0.175000
v 0.172139 0.375000 0.134606
v 0.163835 0.375000 0.150902
v 0.150902 0.375000 0.163835
v 0.134606 0.375000 0.172139
v 0.175000 -0.375000 -0.116541
v 0.116541 -0.375000 -0.175000
v 0.172139 -0.375000 -0.134606
v 0.163835 -0.375000 -0.150902
v 0.150902 -0.375000 -0.163835
v 0.134606 -0.375000 -0.172139
v 0.116541 0.375000 -0.175000
v 0.175000 0.375000 -0.116541
v 0.134606 0.375000 -0.172139
v 0.150902 0.375000 -0.163835
v 0.163835 0.375000 -0.150902
v 0.172139 0.375000 -0.134606
v -0.175000 -0.525000 -0.116541
v -0.116541 -0.525000 -0.175000
v -0.172139 -0.525000 -0.134606
v -0.163835 -0.525000 -0.150902
v -0.150902 -0.525000 -0.163835
v -0.134606 -0.525000 -0.172139
v -0.116541 -0.525000 0.175000
v -0.175000 -0.525000 0.116541
v -0.134606 -0.525000 0.172139
v -0.150902 -0.525000 0.163835
v -0.163835 -0.525000 0.150902
v -0.172139 -0.525000 0.134606
v 0.116541 -0.525000 -0.175000
v 0.175000 -0.525000 -0.116541
v 0.134606 -0.525000 -0.172139
v 0.150902 -0.525000 -0.163835
v 0.163835 -0.525000 -0.150902
v 0.172139 -0.525000 -0.134606
v 0.175000 -0.525000 0.116541
v 0.116541 -0.525000 0.175000
v 0.172139 -0.525000 0.134606
v 0.163835 -0.525000 0.150902
v 0.150902 -0.525000 0.163835
v 0.134606 -0.525000 0.172139
v -0.175000 0.525000 0.116541
v -0.116541 0.525000 0.175000
v -0.172139 0.525000 0.134606
v -0.163835 0.525000 0.150902
v -0.150902 0.525000 0.163835
v -0.134606 0.525000 0.172139
v -0.116541 0.525000 -0.175000
v -0.175000 0.525000 -0.116541
v -0.134606 0.525000 -0.172139
v -0.150902 0.525000 -0.163835
v -0.163835 0.525000 -0.150902
v -0.172139 0.525000 -0.134606
v 0.175000 0.525000 -0.116541
v 0.116541 0.525000 -0.175000
v 0.172139 0.525000 -0.134606
v 0.163835 0.525000 -0.150902
v 0.150902 0.525000 -0.163835
v 0.134606 0.525000 -0.172139
v 0.116541 0.525000 0.175000
v 0.175000 0.525000 0.116541
v 0.134606 0.525000 0.172139
v 0.150902 0.525000 0.163835
v 0.163835 0.525000 0.150902
v 0.172139 0.525000 0.134606
vn -0.0000 -0.0000 -1.0000
vn 1.0000 -0.0000 -0.0000
vn -0.0000 -0.0000 1.0000
vn -1.0000 -0.0000 -0.0000
vn -0.0000 -1.0000 -0.0000
vn -0.0000 1.0000 -0.0000
vn -0.1564 -0.0000 0.9877
vn -0.4540 -0.0000 0.8910
vn -0.7071 -0.0000 0.7071
vn -0.8910 -0.0000 0.4540
vn -0.9877 -0.0000 0.1564
vn -0.1564 -0.0000 -0.9877
vn -0.4540 -0.0000 -0.8910
vn -0.7071 -0.0000 -0.7071
vn -0.8910 -0.0000 -0.4540
vn -0.9877 -0.0000 -0.1564
vn 0.9877 -0.0000 -0.1564
vn 0.8910 -0.0000 -0.4540
vn 0.7071 -0.0000 -0.7071
vn 0.4540 -0.0000 -0.8910
vn 0.1564 -0.0000 -0.9877
vn 0.1564 -0.0000 0.9877
vn 0.4540 -0.0000 0.8910
vn 0.7071 -0.0000 0.7071
vn 0.8910 -0.0000 0.4540
vn 0.9877 -0.0000 0.1564
vt 0.325736 0.175991
vt 0.078913 0.379804
vt 0.325736 0.324009
vt 0.078913 0.452109
vt 0.325736 0.198861
vt 0.078913 0.390976
vt 0.325736 0.219492
vt 0.078913 0.401054
vt 0.325736 0.280508
vt 0.078913 0.430859
vt 0.325736 0.301139
vt 0.078913 0.440937
vt 0.325736 0.925991
vt 0.078913 0.746167
vt 0.325736 0.074009
vt 0.078913 0.329988
vt 0.325736 0.948861
vt 0.078913 0.757339
vt 0.325736 1.000000
vt 0.325736 0.000000
vt 0.078913 0.293836
vt 0.325736 0.030508
vt 0.078913 0.308738
vt 0.325736 0.051139
vt 0.078913 0.318816
vt 0.674264 0.074009
vt 0.944340 0.738944
vt 0.674264 0.925991
vt 0.944340 0.310023
vt 0.674264 0.051139
vt 0.944340 0.750458
vt 0.674264 0.030508
vt 0.944340 0.760844
vt 0.674264 1.000000
vt 0.674264 0.000000
vt 0.944340 0.272764
vt 0.674264 0.948861
vt 0.944340 0.298510
vt 0.674264 0.324009
vt 0.944340 0.613084
vt 0.674264 0.175991
vt 0.944340 0.687602
vt 0.674264 0.301139
vt 0.944340 0.624598
vt 0.674264 0.280508
vt 0.944340 0.634984
vt 0.674264 0.219492
vt 0.944340 0.665702
vt 0.674264 0.198861
vt 0.944340 0.676089
vt 0.325736 0.425991
vt 0.078913 0.501925
vt 0.325736 0.574009
vt 0.078913 0.574229
vt 0.325736 0.448861
vt 0.078913 0.513097
vt 0.325736 0.469492
vt 0.078913 0.523175
vt 0.325736 0.530508
vt 0.078913 0.552980
vt 0.325736 0.551139
vt 0.078913 0.563058
vt 0.674264 0.574009
vt 0.944340 0.487225
vt 0.674264 0.425991
vt 0.944340 0.561743
vt 0.674264 0.551139
vt 0.944340 0.498738
vt 0.674264 0.530508
vt 0.944340 0.509125
vt 0.674264 0.469492
vt 0.944340 0.539843
vt 0.674264 0.448861
vt 0.944340 0.550229
vt 0.325736 0.675991
vt 0.078913 0.624046
vt 0.325736 0.824009
vt 0.078913 0.696350
vt 0.325736 0.698861
vt 0.078913 0.635218
vt 0.325736 0.719492
vt 0.078913 0.645296
vt 0.325736 0.780508
vt 0.078913 0.675101
vt 0.325736 0.801139
vt 0.078913 0.685179
vt 0.674264 0.824009
vt 0.944340 0.361365
vt 0.674264 0.675991
vt 0.944340 0.435883
vt 0.674264 0.801139
vt 0.944340 0.372879
vt 0.674264 0.780508
vt 0.944340 0.383265
vt 0.674264 0.719492
vt 0.944340 0.413983
vt 0.674264 0.698861
vt 0.944340 0.424369
vt 0.191667 0.663847
vt 0.211153 0.683333
vt 0.191667 0.669869
vt 0.191667 0.675301
vt 0.199699 0.683333
vt 0.205131 0.683333
vt 0.788847 0.683333
vt 0.808333 0.663847
vt 0.794869 0.683333
vt 0.800301 0.683333
vt 0.808333 0.675301
vt 0.808333 0.669869
vt 0.211153 0.566667
vt 0.191667 0.586153
vt 0.205131 0.566667
vt 0.199699 0.566667
vt 0.191667 0.574699
vt 0.191667 0.580131
vt 0.808333 0.586153
vt 0.788847 0.566667
vt 0.808333 0.580131
vt 0.808333 0.574699
vt 0.800301 0.566667
vt 0.794869 0.566667
vt 0.288847 0.683333
vt 0.308333 0.663847
vt 0.294869 0.683333
vt 0.300301 0.683333
vt 0.308333 0.675301
vt 0.308333 0.669869
vt 0.691667 0.663847
vt 0.711153 0.683333
vt 0.691667 0.669869
vt 0.691667 0.675301
vt 0.699699 0.683333
vt 0.705131 0.683333
vt 0.308333 0.586153
vt 0.288847 0.566667
vt 0.308333 0.580131
vt 0.308333 0.574699
vt 0.300301 0.566667
vt 0.294869 0.566667
vt 0.711153 0.566667
vt 0.691667 0.586153
vt 0.705131 0.566667
vt 0.699699 0.566667
vt 0.691667 0.574699
vt 0.691667 0.580131
vt 0.191667 0.586153
vt 0.223548 0.607384
vt 0.211153 0.566667
vt 0.232384 0.598548
vt 0.191985 0.580131
vt 0.223692 0.604653
vt 0.192907 0.574699
vt 0.224110 0.602190
vt 0.199699 0.567907
vt 0.227190 0.599110
vt 0.205131 0.566985
vt 0.229653 0.598692
vt 0.211153 0.683333
vt 0.232384 0.651452
vt 0.191667 0.663847
vt 0.223548 0.642616
vt 0.205131 0.683016
vt 0.229653 0.651309
vt 0.199699 0.682093
vt 0.227190 0.650890
vt 0.192907 0.675301
vt 0.224110 0.647810
vt 0.191985 0.669869
vt 0.223692 0.645347
vt 0.288847 0.566667
vt 0.267616 0.598548
vt 0.308333 0.586153
vt 0.276452 0.607384
vt 0.294869 0.566985
vt 0.270347 0.598692
vt 0.300301 0.567907
vt 0.272810 0.599110
vt 0.307093 0.574699
vt 0.275890 0.602190
vt 0.308015 0.580131
vt 0.276308 0.604653
vt 0.308333 0.663847
vt 0.276452 0.642616
vt 0.288847 0.683333
vt 0.267616 0.651452
vt 0.308015 0.669869
vt 0.276308 0.645347
vt 0.307093 0.675301
vt 0.275890 0.647810
vt 0.300301 0.682093
vt 0.272810 0.650890
vt 0.294869 0.683016
vt 0.270347 0.651309
vt 0.808333 0.663847
vt 0.778385 0.643903
vt 0.788847 0.683333
vt 0.768903 0.653385
vt 0.808015 0.669869
vt 0.778230 0.646834
vt 0.807093 0.675301
vt 0.777782 0.649477
vt 0.800301 0.682093
vt 0.774477 0.652782
vt 0.794869 0.683016
vt 0.771834 0.653231
vt 0.788847 0.566667
vt 0.768903 0.596615
vt 0.808333 0.586153
vt 0.778385 0.606097
vt 0.794869 0.566985
vt 0.771834 0.596770
vt 0.774477 0.597218
vt 0.800301 0.567907
vt 0.807093 0.574699
vt 0.777782 0.600523
vt 0.808015 0.580131
vt 0.778230 0.603166
vt 0.691667 0.586153
vt 0.721615 0.606097
vt 0.711153 0.566667
vt 0.731097 0.596615
vt 0.691985 0.580131
vt 0.721770 0.603166
vt 0.692907 0.574699
vt 0.722218 0.600523
vt 0.699699 0.567907
vt 0.725523 0.597218
vt 0.705131 0.566985
vt 0.728166 0.596770
vt 0.711153 0.683333
vt 0.731097 0.653385
vt 0.691667 0.663847
vt 0.721615 0.643903
vt 0.705132 0.683016
vt 0.728167 0.653231
vt 0.699699 0.682093
vt 0.725523 0.652782
vt 0.692907 0.675301
vt 0.722218 0.649477
vt 0.691985 0.669869
vt 0.721770 0.646834
s 0
usemtl Material.002
f 2/3/1 19/39/1 32/65/1 25/51/1
f 91/141/1 68/118/1 127/208/1 134/222/1
f 79/129/2 92/142/2 133/220/2 140/234/2
f 73/123/3 50/100/3 103/160/3 116/186/3
f 61/111/1 86/136/1 109/172/1 98/150/1
f 8/15/4 13/26/4 20/41/4 1/1/4
f 38/77/3 43/87/3 14/28/3 7/13/3
f 26/53/2 31/63/2 44/89/2 37/75/2
f 97/147/5 99/151/5 100/153/5 101/155/5 102/157/5 98/149/5 109/171/5 111/175/5 112/177/5 113/179/5 114/181/5 110/173/5 115/183/5 117/187/5 118/189/5 119/191/5 120/193/5 116/185/5 103/159/5 105/163/5 106/165/5 107/167/5 108/169/5 104/161/5
f 55/105/3 80/130/3 139/232/3 122/198/3
f 85/135/2 74/124/2 115/184/2 110/174/2
f 133/219/6 135/223/6 136/225/6 137/227/6 138/229/6 134/221/6 127/207/6 129/211/6 130/214/6 131/215/6 132/217/6 128/209/6 121/195/6 123/199/6 124/201/6 125/203/6 126/205/6 122/197/6 139/231/6 141/235/6 142/237/6 143/239/6 144/241/6 140/233/6
f 67/117/4 56/106/4 121/196/4 128/210/4
f 7/13/7 14/28/7 18/37/7 9/17/7
f 9/17/8 18/37/8 17/34/8 10/19/8
f 10/20/9 17/35/9 16/32/9 11/22/9
f 11/22/10 16/32/10 15/30/10 12/24/10
f 12/24/11 15/30/11 13/26/11 8/15/11
f 19/39/12 2/3/12 6/11/12 21/43/12
f 21/43/13 6/11/13 5/9/13 22/45/13
f 22/45/14 5/9/14 4/7/14 23/47/14
f 23/47/15 4/7/15 3/5/15 24/49/15
f 24/49/16 3/5/16 1/1/16 20/41/16
f 31/63/17 26/53/17 30/61/17 33/67/17
f 33/67/18 30/61/18 29/59/18 34/69/18
f 34/69/19 29/59/19 28/57/19 35/71/19
f 35/71/20 28/57/20 27/55/20 36/73/20
f 36/73/21 27/55/21 25/51/21 32/65/21
f 43/87/22 38/77/22 42/85/22 45/91/22
f 45/91/23 42/85/23 41/83/23 46/93/23
f 46/93/24 41/83/24 40/81/24 47/95/24
f 47/95/25 40/81/25 39/79/25 48/97/25
f 48/97/26 39/79/26 37/75/26 44/89/26
f 49/99/4 62/112/4 97/148/4 104/162/4
f 1/2/5 3/6/5 4/8/5 5/10/5 6/12/5 2/4/5 25/52/5 27/56/5 28/58/5 29/60/5 30/62/5 26/54/5 37/76/5 39/80/5 40/82/5 41/84/5 42/86/5 38/78/5 7/14/5 9/18/5 10/21/5 11/23/5 12/25/5 8/16/5
f 13/27/6 15/31/6 16/33/6 17/36/6 18/38/6 14/29/6 43/88/6 45/92/6 46/94/6 47/96/6 48/98/6 44/90/6 31/64/6 33/68/6 34/70/6 35/72/6 36/74/6 32/66/6 19/40/6 21/44/6 22/46/6 23/48/6 24/50/6 20/42/6
f 85/135/17 110/174/17 114/182/17 87/137/17
f 87/137/18 114/182/18 113/180/18 88/138/18
f 88/138/19 113/180/19 112/178/19 89/139/19
f 89/139/20 112/178/20 111/176/20 90/140/20
f 90/140/21 111/176/21 109/172/21 86/136/21
f 97/148/16 62/112/16 66/116/16 99/152/16
f 99/152/15 66/116/15 65/115/15 100/154/15
f 100/154/14 65/115/14 64/114/14 101/156/14
f 101/156/13 64/114/13 63/113/13 102/158/13
f 102/158/12 63/113/12 61/111/12 98/150/12
f 103/160/7 50/100/7 54/104/7 105/164/7
f 105/164/8 54/104/8 53/103/8 106/166/8
f 106/166/9 53/103/9 52/102/9 107/168/9
f 107/168/10 52/102/10 51/101/10 108/170/10
f 108/170/11 51/101/11 49/99/11 104/162/11
f 115/184/26 74/124/26 78/128/26 117/188/26
f 117/188/25 78/128/25 77/127/25 118/190/25
f 118/190/24 77/127/24 76/126/24 119/192/24
f 119/192/23 76/126/23 75/125/23 120/194/23
f 120/194/22 75/125/22 73/123/22 116/186/22
f 79/129/26 140/234/26 144/242/26 81/131/26
f 81/131/25 144/242/25 143/240/25 82/132/25
f 82/132/24 143/240/24 142/238/24 83/133/24
f 83/133/23 142/238/23 141/236/23 84/134/23
f 84/134/22 141/236/22 139/232/22 80/130/22
f 121/196/11 56/106/11 60/110/11 123/200/11
f 123/200/10 60/110/10 59/109/10 124/202/10
f 124/202/9 59/109/9 58/108/9 125/204/9
f 125/204/8 58/108/8 57/107/8 126/206/8
f 126/206/7 57/107/7 55/105/7 122/198/7
f 91/141/21 134/222/21 138/230/21 93/143/21
f 93/143/20 138/230/20 137/228/20 94/144/20
f 94/144/19 137/228/19 136/226/19 95/145/19
f 95/145/18 136/226/18 135/224/18 96/146/18
f 96/146/17 135/224/17 133/220/17 92/142/17
f 67/117/16 128/210/16 132/218/16 69/119/16
f 69/119/15 132/218/15 131/216/15 70/120/15
f 70/120/14 131/216/14 130/213/14 71/121/14
f 71/121/13 130/214/13 129/211/13 72/122/13
f 72/122/12 129/212/12 127/208/12 68/118/12
