# Blender 3.5.0
# www.blender.org
mtllib bateria.mtl
o Cube
v -0.375000 -0.375000 -0.152972
v -0.152972 -0.375000 -0.375000
v -0.364133 -0.375000 -0.221583
v -0.332596 -0.375000 -0.283477
v -0.283477 -0.375000 -0.332596
v -0.221582 -0.375000 -0.364133
v -0.152972 -0.375000 0.375000
v -0.375000 -0.375000 0.152972
v -0.221583 -0.375000 0.364133
v -0.283477 -0.375000 0.332596
v -0.332596 -0.375000 0.283477
v -0.364133 -0.375000 0.221582
v -0.375000 0.375000 0.152972
v -0.152972 0.375000 0.375000
v -0.364133 0.375000 0.221583
v -0.332596 0.375000 0.283477
v -0.283477 0.375000 0.332596
v -0.221582 0.375000 0.364133
v -0.152972 0.375000 -0.375000
v -0.375000 0.375000 -0.152972
v -0.221583 0.375000 -0.364133
v -0.283477 0.375000 -0.332596
v -0.332596 0.375000 -0.283477
v -0.364133 0.375000 -0.221582
v 0.152972 -0.375000 -0.375000
v 0.375000 -0.375000 -0.152972
v 0.221583 -0.375000 -0.364133
v 0.283477 -0.375000 -0.332596
v 0.332596 -0.375000 -0.283477
v 0.364133 -0.375000 -0.221582
v 0.375000 0.375000 -0.152972
v 0.152972 0.375000 -0.375000
v 0.364133 0.375000 -0.221583
v 0.332596 0.375000 -0.283477
v 0.283477 0.375000 -0.332596
v 0.221582 0.375000 -0.364133
v 0.375000 -0.375000 0.152972
v 0.152972 -0.375000 0.375000
v 0.364133 -0.375000 0.221583
v 0.332596 -0.375000 0.283477
v 0.283477 -0.375000 0.332596
v 0.221582 -0.375000 0.364133
v 0.152972 0.375000 0.375000
v 0.375000 0.375000 0.152972
v 0.221583 0.375000 0.364133
v 0.283477 0.375000 0.332596
v 0.332596 0.375000 0.283477
v 0.364133 0.375000 0.221582
v -0.175000 -0.375000 0.116541
v -0.116541 -0.375000 0.175000
v -0.172139 -0.375000 0.134606
v -0.163835 -0.375000 0.150902
v -0.150902 -0.375000 0.163835
v -0.134606 -0.375000 0.172139
v -0.116541 0.375000 0.175000
v -0.175000 0.375000 0.116541
v -0.134606 0.375000 0.172139
v -0.150902 0.375000 0.163835
v -0.163835 0.375000 0.150902
v -0.172139 0.375000 0.134606
v -0.116541 -0.375000 -0.175000
v -0.175000 -0.375000 -0.116541
v -0.134606 -0.375000 -0.172139
v -0.150902 -0.375000 -0.163835
v -0.163835 -0.375000 -0.150902
v -0.172139 -0.375000 -0.134606
v -0.175000 0.375000 -0.116541
v -0.116541 0.375000 -0.175000
v -0.172139 0.375000 -0.134606
v -0.163835 0.375000 -0.150902
v -0.150902 0.375000 -0.163835
v -0.134606 0.375000 -0.172139
v 0.116541 -0.375000 0.175000
v 0.175000 -0.375000 0.116541
v 0.134606 -0.375000 0.172139
v 0.150902 -0.375000 0.163835
v 0.163835 -0.375000 0.150902
v 0.172139 -0.375000 0.134606
v 0.175000 0.375000 0.116541
v 0.116541 0.375000 0.175000
v 0.172139 0.375000 0.134606
v 0.163835 0.375000 0.150902
v 0.150902 0.375000 0.163835
v 0.134606 0.375000 0.172139
v 0.175000 -0.375000 -0.116541
v 0.116541 -0.375000 -0.175000
v 0.172139 -0.375000 -0.134606
v 0.163835 -0.375000 -0.150902
v 0.150902 -0.375000 -0.163835
v 0.134606 -0.375000 -0.172139
v 0.116541 0.375000 -0.175000
v 0.175000 0.375000 -0.116541
v 0.134606 0.375000 -0.172139
v 0.150902 0.375000 -0.163835
v 0.163835 0.375000 -0.150902
v 0.172139 0.375000 -0.134606
v -0.175000 -0.525000 -0.116541
v -0.116541 -0.525000 -0.175000
v -0.172139 -0.525000 -0.134606
v -0.163835 -0.525000 -0.150902
v -0.150902 -0.525000 -0.163835
v -0.134606 -0.525000 -0.172139
v -0.116541 -0.525000 0.175000
v -0.175000 -0.525000 0.116541
v -0.134606 -0.525000 0.172139
v -0.150902 -0.525000 0.163835
v -0.163835 -0.525000 0.150902
v -0.172139 -0.525000 0.134606
v 0.116541 -0.525000 -0.175000
v 0.175000 -0.525000 -0.116541
v 0.134606 -0.525000 -0.172139
v 0.150902 -0.525000 -0.163835
v 0.163835 -0.525000 -0.150902
v 0.172139 -0.525000 -0.134606
v 0.175000 -0.525000 0.116541
v 0.116541 -0.525000 0.175000
v 0.172139 -0.525000 0.134606
v 0.163835 -0.525000 0.150902
v 0.150902 -0.525000 0.163835
v 0.134606 -0.525000 0.172139
v -0.175000 0.525000 0.116541
v -0.116541 0.525000 0.175000
v -0.172139 0.525000 0.134606
v -0.163835 0.525000 0.150902
v -0.150902 0.525000 0.163835
v -0.134606 0.525000 0.172139
v -0.116541 0.525000 -0.175000
v -0.175000 0.525000 -0.116541
v -0.134606 0.525000 -0.172139
v -0.150902 0.525000 -0.163835
v -0.163835 0.525000 -0.150902
v -0.172139 0.525000 -0.134606
v 0.175000 0.525000 -0.116541
v 0.116541 0.525000 -0.175000
v 0.172139 0.525000 -0.134606
v 0.163835 0.525000 -0.150902
v 0.150902 0.525000 -0.163835
v 0.134606 0.525000 -0.172139
v 0.116541 0.525000 0.175000
v 0.175000 0.525000 0.116541
v 0.134606 0.525000 0.172139
v 0.150902 0.525000 0.163835
v 0.163835 0.525000 0.150902
v 0.172139 0.525000 0.134606
vn -0.0000 -0.0000 -1.0000
vn 1.0000 -0.0000 -0.0000
vn -0.0000 -0.0000 1.0000
vn -1.0000 -0.0000 -0.0000
vn -0.0000 -1.0000 -0.0000
vn -0.0000 1.0000 -0.0000
vn -0.1564 -0.0000 0.9877
vn -0.4540 -0.0000 0.8910
vn -0.7071 -0.0000 0.7071
vn -0.8910 -0.0000 0.4540
vn -0.9877 -0.0000 0.1564
vn -0.1564 -0.0000 -0.9877
vn -0.4540 -0.0000 -0.8910
vn -0.7071 -0.0000 -0.7071
vn -0.8910 -0.0000 -0.4540
vn -0.9877 -0.0000 -0.1564
vn 0.9877 -0.0000 -0.1564
vn 0.8910 -0.0000 -0.4540
vn 0.7071 -0.0000 -0.7071
vn 0.4540 -0.0000 -0.8910
vn 0.1564 -0.0000 -0.9877
vn 0.1564 -0.0000 0.9877
vn 0.4540 -0.0000 0.8910
vn 0.7071 -0.0000 0.7071
vn 0.8910 -0.0000 0.4540
vn 0.9877 -0.0000 0.1564
vt 0.375000 0.175991
vt 0.375000 0.324009
vt 0.375000 0.198861
vt 0.375000 0.219492
vt 0.375000 0.280508
vt 0.375000 0.301139
vt 0.375000 0.925991
vt 0.375000 0.074009
vt 0.375000 0.948861
vt 0.375000 1.000000
vt 0.375000 0.000000
vt 0.375000 0.030508
vt 0.375000 0.051139
vt 0.625000 0.074009
vt 0.625000 0.925991
vt 0.625000 0.051139
vt 0.625000 0.030508
vt 0.625000 0.000000
vt 0.625000 1.000000
vt 0.625000 0.948861
vt 0.625000 0.324009
vt 0.625000 0.175991
vt 0.625000 0.301139
vt 0.625000 0.280508
vt 0.625000 0.219492
vt 0.625000 0.198861
vt 0.375000 0.425991
vt 0.375000 0.574009
vt 0.375000 0.448861
vt 0.375000 0.469492
vt 0.375000 0.530508
vt 0.375000 0.551139
vt 0.625000 0.574009
vt 0.625000 0.425991
vt 0.625000 0.551139
vt 0.625000 0.530508
vt 0.625000 0.469492
vt 0.625000 0.448861
vt 0.375000 0.675991
vt 0.375000 0.824009
vt 0.375000 0.698861
vt 0.375000 0.719492
vt 0.375000 0.780508
vt 0.375000 0.801139
vt 0.625000 0.824009
vt 0.625000 0.675991
vt 0.625000 0.801139
vt 0.625000 0.780508
vt 0.625000 0.719492
vt 0.625000 0.698861
vt 0.191667 0.663847
vt 0.211153 0.683333
vt 0.191667 0.669869
vt 0.191667 0.675301
vt 0.199699 0.683333
vt 0.205131 0.683333
vt 0.788847 0.683333
vt 0.808333 0.663847
vt 0.794869 0.683333
vt 0.800301 0.683333
vt 0.808333 0.675301
vt 0.808333 0.669869
vt 0.211153 0.566667
vt 0.191667 0.586153
vt 0.205131 0.566667
vt 0.199699 0.566667
vt 0.191667 0.574699
vt 0.191667 0.580131
vt 0.808333 0.586153
vt 0.788847 0.566667
vt 0.808333 0.580131
vt 0.808333 0.574699
vt 0.800301 0.566667
vt 0.794869 0.566667
vt 0.288847 0.683333
vt 0.308333 0.663847
vt 0.294869 0.683333
vt 0.300301 0.683333
vt 0.308333 0.675301
vt 0.308333 0.669869
vt 0.691667 0.663847
vt 0.711153 0.683333
vt 0.691667 0.669869
vt 0.691667 0.675301
vt 0.699699 0.683333
vt 0.705131 0.683333
vt 0.308333 0.586153
vt 0.288847 0.566667
vt 0.308333 0.580131
vt 0.308333 0.574699
vt 0.300301 0.566667
vt 0.294869 0.566667
vt 0.711153 0.566667
vt 0.691667 0.586153
vt 0.705131 0.566667
vt 0.699699 0.566667
vt 0.691667 0.574699
vt 0.691667 0.580131
vt 0.191667 0.586153
vt 0.211153 0.566667
vt 0.191985 0.580131
vt 0.192907 0.574699
vt 0.199699 0.567907
vt 0.205131 0.566985
vt 0.211153 0.683333
vt 0.191667 0.663847
vt 0.205131 0.683016
vt 0.199699 0.682093
vt 0.192907 0.675301
vt 0.191985 0.669869
vt 0.288847 0.566667
vt 0.308333 0.586153
vt 0.294869 0.566985
vt 0.300301 0.567907
vt 0.307093 0.574699
vt 0.308015 0.580131
vt 0.308333 0.663847
vt 0.288847 0.683333
vt 0.308015 0.669869
vt 0.307093 0.675301
vt 0.300301 0.682093
vt 0.294869 0.683016
vt 0.808333 0.663847
vt 0.788847 0.683333
vt 0.808015 0.669869
vt 0.807093 0.675301
vt 0.800301 0.682093
vt 0.794869 0.683016
vt 0.788847 0.566667
vt 0.808333 0.586153
vt 0.794869 0.566985
vt 0.800301 0.567907
vt 0.807093 0.574699
vt 0.808015 0.580131
vt 0.691667 0.586153
vt 0.711153 0.566667
vt 0.691985 0.580131
vt 0.692907 0.574699
vt 0.699699 0.567907
vt 0.705131 0.566985
vt 0.711153 0.683333
vt 0.691667 0.663847
vt 0.705132 0.683016
vt 0.699699 0.682093
vt 0.692907 0.675301
vt 0.691985 0.669869
s 0
usemtl Material.002
f 2/2/1 19/21/1 32/34/1 25/27/1
f 91/93/1 68/70/1 127/129/1 134/136/1
f 79/81/2 92/94/2 133/135/2 140/142/2
f 73/75/3 50/52/3 103/105/3 116/118/3
f 61/63/1 86/88/1 109/111/1 98/100/1
f 8/8/4 13/14/4 20/22/4 1/1/4
f 38/40/3 43/45/3 14/15/3 7/7/3
f 26/28/2 31/33/2 44/46/2 37/39/2
f 97/99/5 99/101/5 100/102/5 101/103/5 102/104/5 98/100/5 109/111/5 111/113/5 112/114/5 113/115/5 114/116/5 110/112/5 115/117/5 117/119/5 118/120/5 119/121/5 120/122/5 116/118/5 103/105/5 105/107/5 106/108/5 107/109/5 108/110/5 104/106/5
f 55/57/3 80/82/3 139/141/3 122/124/3
f 85/87/2 74/76/2 115/117/2 110/112/2
f 133/135/6 135/137/6 136/138/6 137/139/6 138/140/6 134/136/6 127/129/6 129/131/6 130/132/6 131/133/6 132/134/6 128/130/6 121/123/6 123/125/6 124/126/6 125/127/6 126/128/6 122/124/6 139/141/6 141/143/6 142/144/6 143/145/6 144/146/6 140/142/6
f 67/69/4 56/58/4 121/123/4 128/130/4
f 7/7/7 14/15/7 18/20/7 9/9/7
f 9/9/8 18/20/8 17/19/8 10/10/8
f 10/11/9 17/18/9 16/17/9 11/12/9
f 11/12/10 16/17/10 15/16/10 12/13/10
f 12/13/11 15/16/11 13/14/11 8/8/11
f 19/21/12 2/2/12 6/6/12 21/23/12
f 21/23/13 6/6/13 5/5/13 22/24/13
f 22/24/14 5/5/14 4/4/14 23/25/14
f 23/25/15 4/4/15 3/3/15 24/26/15
f 24/26/16 3/3/16 1/1/16 20/22/16
f 31/33/17 26/28/17 30/32/17 33/35/17
f 33/35/18 30/32/18 29/31/18 34/36/18
f 34/36/19 29/31/19 28/30/19 35/37/19
f 35/37/20 28/30/20 27/29/20 36/38/20
f 36/38/21 27/29/21 25/27/21 32/34/21
f 43/45/22 38/40/22 42/44/22 45/47/22
f 45/47/23 42/44/23 41/43/23 46/48/23
f 46/48/24 41/43/24 40/42/24 47/49/24
f 47/49/25 40/42/25 39/41/25 48/50/25
f 48/50/26 39/41/26 37/39/26 44/46/26
f 49/51/4 62/64/4 97/99/4 104/106/4
f 1/1/5 3/3/5 4/4/5 5/5/5 6/6/5 2/2/5 25/27/5 27/29/5 28/30/5 29/31/5 30/32/5 26/28/5 37/39/5 39/41/5 40/42/5 41/43/5 42/44/5 38/40/5 7/7/5 9/9/5 10/11/5 11/12/5 12/13/5 8/8/5
f 13/14/6 15/16/6 16/17/6 17/19/6 18/20/6 14/15/6 43/45/6 45/47/6 46/48/6 47/49/6 48/50/6 44/46/6 31/33/6 33/35/6 34/36/6 35/37/6 36/38/6 32/34/6 19/21/6 21/23/6 22/24/6 23/25/6 24/26/6 20/22/6
f 85/87/17 110/112/17 114/116/17 87/89/17
f 87/89/18 114/116/18 113/115/18 88/90/18
f 88/90/19 113/115/19 112/114/19 89/91/19
f 89/91/20 112/114/20 111/113/20 90/92/20
f 90/92/21 111/113/21 109/111/21 86/88/21
f 97/99/16 62/64/16 66/68/16 99/101/16
f 99/101/15 66/68/15 65/67/15 100/102/15
f 100/102/14 65/67/14 64/66/14 101/103/14
f 101/103/13 64/66/13 63/65/13 102/104/13
f 102/104/12 63/65/12 61/63/12 98/100/12
f 103/105/7 50/52/7 54/56/7 105/107/7
f 105/107/8 54/56/8 53/55/8 106/108/8
f 106/108/9 53/55/9 52/54/9 107/109/9
f 107/109/10 52/54/10 51/53/10 108/110/10
f 108/110/11 51/53/11 49/51/11 104/106/11
f 115/117/26 74/76/26 78/80/26 117/119/26
f 117/119/25 78/80/25 77/79/25 118/120/25
f 118/120/24 77/79/24 76/78/24 119/121/24
f 119/121/23 76/78/23 75/77/23 120/122/23
f 120/122/22 75/77/22 73/75/22 116/118/22
f 79/81/26 140/142/26 144/146/26 81/83/26
f 81/83/25 144/146/25 143/145/25 82/84/25
f 82/84/24 143/145/24 142/144/24 83/85/24
f 83/85/23 142/144/23 141/143/23 84/86/23
f 84/86/22 141/143/22 139/141/22 80/82/22
f 121/123/11 56/58/11 60/62/11 123/125/11
f 123/125/10 60/62/10 59/61/10 124/126/10
f 124/126/9 59/61/9 58/60/9 125/127/9
f 125/127/8 58/60/8 57/59/8 126/128/8
f 126/128/7 57/59/7 55/57/7 122/124/7
f 91/93/21 134/136/21 138/140/21 93/95/21
f 93/95/20 138/140/20 137/139/20 94/96/20
f 94/96/19 137/139/19 136/138/19 95/97/19
f 95/97/18 136/138/18 135/137/18 96/98/18
f 96/98/17 135/137/17 133/135/17 92/94/17
f 67/69/16 128/130/16 132/134/16 69/71/16
f 69/71/15 132/134/15 131/133/15 70/72/15
f 70/72/14 131/133/14 130/132/14 71/73/14
f 71/73/13 130/132/13 129/131/13 72/74/13
f 72/74/12 129/131/12 127/129/12 68/70/12
