# Blender 3.5.1
# www.blender.org
mtllib box2.mtl
o skrzynia1
v 0.825011 -4.596881 2.206356
v -3.248923 -0.522947 2.204610
v -3.248923 -4.596881 2.204610
v 0.828690 -4.600730 -1.870218
v -3.248333 -4.615984 -1.891476
v -3.248334 -0.503845 -1.891476
v -3.248343 -4.598414 -1.873902
v -3.250324 -4.598414 2.203102
v 0.828662 -0.521413 -1.871916
v 0.828662 -4.598414 -1.871916
v -3.250324 -0.521413 2.203102
v 0.826675 -0.521413 2.205084
v 0.826675 -4.598414 2.205084
v -3.248343 -0.521413 -1.873902
v 0.828546 -0.519099 -1.870288
v 0.826538 -0.519099 2.203333
v 0.826538 -4.600729 2.203333
v 0.827197 -4.596882 -1.873425
v -3.246737 -4.596882 -1.875171
v 0.827197 -0.522947 -1.873425
v -3.246737 -0.522947 -1.875171
v -3.250339 -4.615983 2.220733
v -3.250339 -0.503845 2.220732
v 0.825082 -0.522947 2.206356
v 0.828006 -0.521413 -0.526511
v 0.113631 -0.521413 -1.872265
v 0.003676 -0.521413 -1.872318
v 0.827158 -0.521413 1.214303
v 0.827223 -0.521413 1.084567
vn -0.0000 -1.0000 -0.0000
vn 1.0000 -0.0000 0.0005
vn 0.0004 -0.0000 -1.0000
vn -1.0000 -0.0000 -0.0005
vn -0.0004 -0.0000 1.0000
vn -0.0000 1.0000 -0.0000
vt 0.496170 0.535894
vt 0.269299 0.762765
vt 0.269299 0.535893
vt 0.230701 0.540558
vt 0.769299 0.534767
vt 0.769299 0.761638
vt 0.003830 0.275090
vt 0.003830 0.532898
vt 0.534767 0.269299
vt 0.261638 0.275090
vt 0.792575 0.527107
vt 0.534767 0.527107
vt 0.261638 0.532898
vt 0.792575 0.269299
vt 0.230701 0.767429
vt 0.003830 0.767429
vt 0.003830 0.540558
vt 0.534767 0.534767
vt 0.761638 0.534767
vt 0.534767 0.761638
vt 0.761638 0.761638
vt 0.996170 0.534767
vt 0.996170 0.761638
vt 0.496170 0.762765
vt 0.534767 0.350047
vt 0.579982 0.269299
vt 0.586935 0.269299
vt 0.534767 0.464455
vt 0.534767 0.456251
s 0
usemtl box1.004
f 7/7/1 10/10/1 13/13/1 8/8/1
f 4/4/2 15/15/2 16/16/2 17/17/2
f 19/19/3 21/21/3 20/20/3 18/18/3
f 22/22/4 23/23/4 6/6/4 5/5/4
f 1/1/5 24/24/5 2/2/5 3/3/5
f 14/14/6 11/11/6 12/12/6 28/28/6 29/29/6 25/25/6 9/9/6 26/26/6 27/27/6
